# xmcd
#
# Track frame offsets: 
#        150
#        14860
#        28391
#        43932
#        56630
#        68670
#        80958
#        94157
#        104955
#        119848
#        130430
#        144964
#        154143
#
# Disc length: 2192 seconds
#
# Revision: 1
# Processed by: cddbd v1.5.2PL0 Copyright (c) Steve Scherf et al.
# Submitted via: ExactAudioCopy v1.0b3
#
DISCID=d1088e0d
DTITLE=Various Artist - The best of country legends
DYEAR=2003
DGENRE=Country
TTITLE0=Glen Campbell - Rhinestone cowboy
TTITLE1=Waylon Jennings - Willie Nelson - Good hearted woman [re-record
TTITLE1=ing]
TTITLE2=Jimmie Rodgers - Mississippi delta blues
TTITLE3=Bellamy Brothers - Let your love flow
TTITLE4=Bill Monroe - No letter in the mail
TTITLE5=Bobby Bare - 500 miles away from home
TTITLE6=Kenny Rogers - Ruby, don't take your love to town
TTITLE7=Lester Flatt - Foggy mountain breakdown
TTITLE8=George Jones - He stopped loving her today
TTITLE9=Floyd Cramer - San Antonio rose
TTITLE10=Dolly Parton - Heartbreak express
TTITLE11=Charley Pride - Kiss an angel "Good mornin'"
TTITLE12=Chet Atkins - Mr. Sandman
EXTD=YEAR: 2003
EXTT0=
EXTT1=
EXTT2=
EXTT3=
EXTT4=
EXTT5=
EXTT6=
EXTT7=
EXTT8=
EXTT9=
EXTT10=
EXTT11=
EXTT12=
PLAYORDER=
